<svg class="w-6 h-6" width="24" height="24" viewBox="0 0 24 24" fill="none" xmlns="http://www.w3.org/2000/svg"><path d="M8.99953 8V2C8.99953 1.44787 9.44746 1.00025 9.99953 1C10.5518 1 10.9995 1.44772 10.9995 2V8L10.9946 8.1875C10.9712 8.56302 10.8767 8.93066 10.7173 9.27148L10.6323 9.43945L5.12258 19.5195C5.03924 19.6718 4.99653 19.844 4.99953 20.0176C5.00258 20.191 5.05078 20.3606 5.13918 20.5098C5.2277 20.6591 5.3536 20.7832 5.50441 20.8691C5.65521 20.955 5.826 21 5.99953 21H18.0005L18.1294 20.9912C18.2578 20.9745 18.3824 20.9336 18.4956 20.8691C18.6464 20.7832 18.7723 20.6591 18.8609 20.5098C18.9492 20.3606 18.9975 20.191 19.0005 20.0176C19.0028 19.8874 18.979 19.7583 18.9321 19.6377L18.8775 19.5195L13.3677 9.43945C13.1565 9.05297 13.0327 8.62556 13.0054 8.1875L12.9995 8V2C12.9995 1.44787 13.4475 1.00025 13.9995 1C14.5518 1 14.9995 1.44772 14.9995 2V8L15.0073 8.12598C15.023 8.24992 15.0623 8.3702 15.1226 8.48047L20.6314 18.5596H20.6323C20.8823 19.0165 21.0085 19.531 20.9995 20.0518C20.9905 20.5725 20.8462 21.0823 20.5806 21.5303C20.315 21.9781 19.9373 22.3488 19.4849 22.6064C19.0889 22.8319 18.6478 22.9647 18.1948 22.9941L17.9995 23H5.99953V22.999C5.47893 22.999 4.96754 22.8641 4.51515 22.6064C4.0627 22.3488 3.68506 21.9781 3.41945 21.5303C3.15383 21.0823 3.00852 20.5725 2.99953 20.0518C2.99055 19.531 3.1177 19.0165 3.36769 18.5596H3.36867L8.87746 8.48047L8.93019 8.36719C8.96073 8.28965 8.98129 8.20865 8.99172 8.12598L8.99953 8Z" fill="#686583" style="fill-opacity:1;"/><path d="M17.5468 14L17.6493 14.0049C18.1535 14.0561 18.5468 14.4822 18.5468 15C18.5468 15.5178 18.1535 15.9439 17.6493 15.9951L17.5468 16H6.453C5.90072 16 5.453 15.5523 5.453 15C5.453 14.4477 5.90072 14 6.453 14H17.5468Z" fill="#686583" style="fill-opacity:1;"/><path d="M15.5 1C16.0523 1 16.5 1.44772 16.5 2C16.5 2.55228 16.0523 3 15.5 3H8.5C7.94772 3 7.5 2.55228 7.5 2C7.5 1.44772 7.94772 1 8.5 1H15.5Z" fill="#686583" style="fill-opacity:1;"/></svg>