<svg class="w-6 h-6" width="24" height="24" viewBox="0 0 24 24" fill="none" xmlns="http://www.w3.org/2000/svg"><path d="M11 18V12C11 11.4477 11.4477 11 12 11C12.5523 11 13 11.4477 13 12V18C13 18.5523 12.5523 19 12 19C11.4477 19 11 18.5523 11 18Z" fill="#686583" style="fill-opacity:1;"/><path d="M14.9999 1L15.2216 1.00781C15.7358 1.04593 16.2329 1.21648 16.664 1.50391C17.1567 1.8325 17.5417 2.29993 17.7694 2.84668L20.8456 10.2305L20.8896 10.3447C20.9837 10.6162 21.0189 10.9054 20.9911 11.1924C20.9595 11.5202 20.8466 11.8353 20.664 12.1094C20.4814 12.3832 20.2344 12.6083 19.9443 12.7637C19.6901 12.8997 19.4097 12.9784 19.123 12.9961L18.9999 13H4.99992C4.67082 13 4.34675 12.9189 4.05656 12.7637C3.76629 12.6083 3.51848 12.3833 3.33585 12.1094C3.15322 11.8353 3.04038 11.5202 3.00871 11.1924C2.97705 10.8647 3.02753 10.5343 3.15421 10.2305L6.23136 2.8457V2.84473L6.32414 2.64355C6.5572 2.18381 6.90581 1.7911 7.33683 1.50391C7.8295 1.17567 8.40791 0.999984 8.99992 1H14.9999ZM8.85343 3.01074C8.70808 3.03225 8.56851 3.08583 8.44523 3.16797C8.28105 3.2774 8.15303 3.43314 8.07707 3.61523L4.99992 11H18.9999L15.9228 3.61523C15.8468 3.43311 15.7188 3.27745 15.5546 3.16797C15.4313 3.08575 15.2918 3.0323 15.1464 3.01074L14.9999 3H8.99992L8.85343 3.01074Z" fill="#686583" style="fill-opacity:1;"/><path d="M15 20C15 19.7348 14.8946 19.4805 14.707 19.293C14.5195 19.1054 14.2652 19 14 19H10C9.73478 19 9.48051 19.1054 9.29297 19.293C9.10543 19.4805 9 19.7348 9 20V21H15V20ZM17 21C17 21.5304 16.7891 22.039 16.4141 22.4141C16.039 22.7891 15.5304 23 15 23H9C8.46957 23 7.96101 22.7891 7.58594 22.4141C7.25765 22.0858 7.05515 21.6553 7.00977 21.1973L7 21V20C7 19.2043 7.3163 18.4415 7.87891 17.8789C8.44151 17.3163 9.20435 17 10 17H14C14.7957 17 15.5585 17.3163 16.1211 17.8789C16.6837 18.4415 17 19.2043 17 20V21Z" fill="#686583" style="fill-opacity:1;"/></svg>