<svg class="w-6 h-6" width="24" height="24" viewBox="0 0 24 24" fill="none" xmlns="http://www.w3.org/2000/svg"><path d="M19.5 2C20.0523 2 20.5 2.44772 20.5 3C20.5 3.55228 20.0523 4 19.5 4H4.5C3.94772 4 3.5 3.55228 3.5 3C3.5 2.44772 3.94772 2 4.5 2H19.5Z" fill="#686583" style="fill-opacity:1;"/><path d="M5 19V3C5 2.44772 5.44772 2 6 2C6.55228 2 7 2.44772 7 3V19L7.00488 19.0986C7.02757 19.3276 7.12883 19.5429 7.29297 19.707C7.48051 19.8946 7.73478 20 8 20H16C16.2652 20 16.5195 19.8946 16.707 19.707C16.8946 19.5195 17 19.2652 17 19V3C17 2.44772 17.4477 2 18 2C18.5523 2 19 2.44772 19 3V19C19 19.7957 18.6837 20.5585 18.1211 21.1211C17.5585 21.6837 16.7957 22 16 22H8C7.20435 22 6.44152 21.6837 5.87891 21.1211C5.3163 20.5585 5 19.7956 5 19Z" fill="#686583" style="fill-opacity:1;"/><path d="M18 13C18.5523 13 19 13.4477 19 14C19 14.5523 18.5523 15 18 15H6C5.44772 15 5 14.5523 5 14C5 13.4477 5.44772 13 6 13H18Z" fill="#686583" style="fill-opacity:1;"/></svg>